Coordinates
version=1
nRows=24
nColumns=24
inDegrees=yes

Units are S.I. units (second, meters, Newtons, ...)
Angles are in degrees.

endheader
time	pelvis_tilt	pelvis_list	pelvis_rotation	pelvis_tx	pelvis_ty	pelvis_tz	hip_flexion_r	hip_adduction_r	hip_rotation_r	knee_angle_r	ankle_angle_r	subtalar_angle_r	mtp_angle_r	hip_flexion_l	hip_adduction_l	hip_rotation_l	knee_angle_l	ankle_angle_l	subtalar_angle_l	mtp_angle_l	lumbar_extension	lumbar_bending	lumbar_rotation
      3.93000000	     -1.39597489	      7.02303773	     -4.35001423	     -0.47551777	      0.93487909	      0.22793615	     21.84464660	     -6.12188216	      0.91845586	    -70.31588179	      7.51883991	    -14.94383333	      0.00000000	     13.85118693	     13.96028043	      3.21054033	    -22.54954406	     15.89428791	    -18.71061058	      0.00000000	     -7.74956716	    -11.04582528	     -4.92753983
      3.93500000	     -1.30660632	      6.75946845	     -4.18823605	     -0.46895390	      0.93619151	      0.22755688	     22.39319892	     -5.84068477	      0.83536642	    -69.72901803	      7.99182633	    -14.58063340	      0.00000000	     12.96377281	     13.81701782	      3.75285352	    -22.02600408	     15.85686683	    -19.00452111	      0.00000000	     -7.90718014	    -10.67208856	     -5.14919803
      3.94000000	     -1.22531603	      6.49147238	     -4.02202874	     -0.46244499	      0.93743195	      0.22718645	     22.92940387	     -5.55571528	      0.73847912	    -69.06114192	      8.40443477	    -14.25273497	      0.00000000	     12.09060473	     13.65732091	      4.28797813	    -21.50212898	     15.83792790	    -19.28840823	      0.00000000	     -8.06331228	    -10.29300785	     -5.37423636
      3.94500000	     -1.12869238	      6.23144187	     -3.85491632	     -0.45597162	      0.93861477	      0.22678370	     23.42707817	     -5.28253278	      0.64242033	    -68.31445760	      8.76164287	    -13.97839711	      0.00000000	     11.20129808	     13.50337249	      4.86057180	    -20.97265797	     15.82347698	    -19.58784331	      0.00000000	     -8.24126659	     -9.91799755	     -5.64165856
      3.95000000	     -1.06924745	      5.96214494	     -3.66898215	     -0.44949900	      0.93972073	      0.22641520	     23.92182939	     -4.99964794	      0.51976092	    -67.46394970	      9.09371655	    -13.75226538	      0.00000000	     10.36797820	     13.31489708	      5.35438604	    -20.46533687	     15.80862628	    -19.81426006	      0.00000000	     -8.37359718	     -9.54211312	     -5.87118840
      3.95500000	     -1.00568892	      5.70196686	     -3.48562326	     -0.44305368	      0.94074374	      0.22599250	     24.39081025	     -4.73197726	      0.39927924	    -66.53794938	      9.36957775	    -13.58510721	      0.00000000	      9.53597164	     13.13196773	      5.85306132	    -19.95860204	     15.81229396	    -20.03607627	      0.00000000	     -8.51137518	     -9.15437492	     -6.12542083
      3.96000000	     -0.94909675	      5.44801087	     -3.29376445	     -0.43661875	      0.94168395	      0.22560192	     24.83573715	     -4.47113162	      0.26826487	    -65.52804514	      9.60661596	    -13.47652060	      0.00000000	      8.72092142	     12.94248635	      6.33273790	    -19.46154898	     15.82655111	    -20.24063753	      0.00000000	     -8.64313693	     -8.78868811	     -6.38757711
      3.96500000	     -0.90135692	      5.20189451	     -3.10090373	     -0.43020905	      0.94253054	      0.22519790	     25.26353696	     -4.22116368	      0.13739245	    -64.43939841	      9.80199523	    -13.41534126	      0.00000000	      7.92750699	     12.75134051	      6.78988987	    -18.97477374	     15.85382809	    -20.42688638	      0.00000000	     -8.76399804	     -8.42582018	     -6.65021696
      3.97000000	     -0.87452756	      4.95882855	     -2.89254159	     -0.42380532	      0.94327088	      0.22481931	     25.67716491	     -3.97751743	     -0.00977522	    -63.26369712	      9.97556147	    -13.40709756	      0.00000000	      7.17066192	     12.55003326	      7.21226580	    -18.50633557	     15.90009418	    -20.58970461	      0.00000000	     -8.85974685	     -8.07859562	     -6.89188206
      3.97500000	     -0.82218907	      4.73665013	     -2.68435469	     -0.41740212	      0.94396247	      0.22437931	     26.03563947	     -3.76295896	     -0.14504079	    -62.01327672	     10.09905176	    -13.44808909	      0.00000000	      6.38930346	     12.37235725	      7.67339735	    -18.04125449	     15.92619372	    -20.76051662	      0.00000000	     -8.98444632	     -7.72763856	     -7.19373315
      3.98000000	     -0.78859417	      4.52645243	     -2.46984096	     -0.41101917	      0.94454100	      0.22399628	     26.38399685	     -3.55999060	     -0.28507676	    -60.68667455	     10.20367164	    -13.52027392	      0.00000000	      5.64388222	     12.19392309	      8.10088116	    -17.59372198	     15.96358338	    -20.92431307	      0.00000000	     -9.09037586	     -7.40991261	     -7.47210077
      3.98500000	     -0.76623430	      4.32571997	     -2.25193026	     -0.40461544	      0.94501501	      0.22357323	     26.71049393	     -3.37633092	     -0.42967519	    -59.28204653	     10.28163514	    -13.62168369	      0.00000000	      4.92156334	     12.02216901	      8.51747049	    -17.16503529	     16.01777801	    -21.08152142	      0.00000000	     -9.17311386	     -7.09373657	     -7.74529005
      3.99000000	     -0.76948892	      4.12981249	     -2.02824528	     -0.39822445	      0.94536934	      0.22316708	     27.03325300	     -3.20712651	     -0.59397579	    -57.80159845	     10.35040131	    -13.73061512	      0.00000000	      4.23910599	     11.84541689	      8.89886984	    -16.74830116	     16.08196343	    -21.22917397	      0.00000000	     -9.22952063	     -6.78853890	     -7.97156314
      3.99500000	     -0.71959062	      3.96571528	     -1.78450793	     -0.39187363	      0.94572675	      0.22276432	     27.26523829	     -3.06862155	     -0.72913622	    -56.24875309	     10.37688590	    -13.87131791	      0.00000000	      3.50042391	     11.70165952	      9.36450585	    -16.33473755	     16.09969023	    -21.41156349	      0.00000000	     -9.36302718	     -6.52273363	     -8.31728238
      4.00000000	     -0.69864067	      3.81092997	     -1.54982644	     -0.38550652	      0.94595301	      0.22234883	     27.49756632	     -2.94901022	     -0.87212031	    -54.62502310	     10.40615258	    -13.99091570	      0.00000000	      2.80483731	     11.56222530	      9.78504927	    -15.93523350	     16.12645422	    -21.60182444	      0.00000000	     -9.45338440	     -6.26110680	     -8.60094656
      4.00500000	     -0.69299838	      3.67227886	     -1.30870078	     -0.37914267	      0.94608096	      0.22194052	     27.71490104	     -2.85204364	     -1.01799977	    -52.93336401	     10.41759893	    -14.10159785	      0.00000000	      2.13615486	     11.43259473	     10.19229392	    -15.55139471	     16.16159638	    -21.77470526	      0.00000000	     -9.52616463	     -6.02000705	     -8.87741892
      4.01000000	     -0.71508013	      3.54164484	     -1.06832084	     -0.37278046	      0.94608866	      0.22154214	     27.92884932	     -2.77066035	     -1.17368563	    -51.17188585	     10.42995320	    -14.18482139	      0.00000000	      1.51129824	     11.30460991	     10.56189351	    -15.18737936	     16.21987091	    -21.93010170	      0.00000000	     -9.56762036	     -5.79211276	     -9.11205405
      4.01500000	     -0.69451534	      3.44415283	     -0.81319944	     -0.36645752	      0.94610146	      0.22113449	     28.06268933	     -2.72402233	     -1.29585872	    -49.34540563	     10.41970369	    -14.23656153	      0.00000000	      0.84192261	     11.20795536	     10.97569181	    -14.82269796	     16.22857500	    -22.10746537	      0.00000000	     -9.67074120	     -5.59720437	     -9.43236624
      4.02000000	     -0.72222378	      3.34690939	     -0.57473382	     -0.36009366	      0.94596226	      0.22072926	     28.21372672	     -2.68772348	     -1.44526171	    -47.45015250	     10.41982237	    -14.24759932	      0.00000000	      0.23905110	     11.10734354	     11.32984188	    -14.48362934	     16.28164878	    -22.25612895	      0.00000000	     -9.70503050	     -5.40102864	     -9.67007263
      4.02500000	     -0.70313113	      3.28649755	     -0.31542563	     -0.35378405	      0.94583628	      0.22030594	     28.28049046	     -2.69172322	     -1.55958099	    -45.49800917	     10.40684372	    -14.21211046	      0.00000000	     -0.41231335	     11.04043650	     11.71282223	    -14.14112664	     16.28848165	    -22.42174476	      0.00000000	     -9.81179584	     -5.24030492	     -9.98607197
      4.03000000	     -0.75539398	      3.22401664	     -0.07947458	     -0.34744641	      0.94553717	      0.21992538	     28.39368201	     -2.69753412	     -1.69983589	    -43.48701233	     10.39997567	    -14.11803847	      0.00000000	     -0.96724771	     10.96401997	     12.01305867	    -13.83129765	     16.35585851	    -22.52242119	      0.00000000	     -9.82572697	     -5.08714254	    -10.19762226
      4.03500000	     -0.77976499	      3.18301306	      0.16224943	     -0.34110763	      0.94522767	      0.21954304	     28.43897554	     -2.72939611	     -1.83029837	    -41.41947602	     10.38181655	    -13.97265891	      0.00000000	     -1.54859668	     10.90500186	     12.31671254	    -13.52988374	     16.41344155	    -22.60696602	      0.00000000	     -9.87548000	     -4.95458655	    -10.46585059
      4.04000000	     -0.80724300	      3.15814282	      0.40153502	     -0.33478905	      0.94485353	      0.21919272	     28.45794423	     -2.77980080	     -1.96171766	    -39.30723305	     10.36073353	    -13.76666933	      0.00000000	     -2.11567534	     10.85590196	     12.59067517	    -13.24260061	     16.47965253	    -22.67165839	      0.00000000	     -9.93150460	     -4.84524229	    -10.71705887
      4.04500000	     -0.82156298	      3.15831746	      0.63532979	     -0.32846362	      0.94444009	      0.21884410	     28.43599937	     -2.86021347	     -2.09893647	    -37.16161861	     10.33509604	    -13.50962644	      0.00000000	     -2.69399333	     10.82780456	     12.84458410	    -12.95991780	     16.54537784	    -22.70816640	      0.00000000	    -10.00723903	     -4.76651614	    -10.97658542
